<?xml version="1.0" encoding="utf-8"?>
<!-- Svg Vector Icons : http://www.onlinewebfonts.com/icon -->
<!DOCTYPE svg PUBLIC "-//W3C//DTD SVG 1.1//EN" "http://www.w3.org/Graphics/SVG/1.1/DTD/svg11.dtd">
<svg version="1.1" xmlns="http://www.w3.org/2000/svg" xmlns:xlink="http://www.w3.org/1999/xlink" x="0px" y="0px" viewBox="0 0 1000 1000" enable-background="new 0 0 1000 1000" xml:space="preserve">
<metadata> Svg Vector Icons : http://www.onlinewebfonts.com/icon </metadata>
<g><g><g><g><path d="M764.3,836.7H235.7C111.2,836.7,10,735.5,10,611c0-105.3,74.3-196.8,175.6-219.9c-0.4-5.2-0.6-10.2-0.6-15c0-117.4,95.5-212.9,212.9-212.9c82.9,0,156.6,47,191.9,121c89.8-14.3,173.5,29.2,216.1,105.1C911.4,409.1,990,502.7,990,611C990,735.5,888.8,836.7,764.3,836.7z M397.8,200.6c-96.8,0-175.6,78.8-175.6,175.6c0,8.2,0.8,17.1,2.4,27.2c0.8,4.9-0.4,10-3.4,14c-3,4-7.4,6.7-12.4,7.4C116.7,437.9,47.3,518,47.3,611c0,103.9,84.5,188.4,188.4,188.4h528.6c103.9,0,188.5-84.5,188.5-188.4c0-93.1-69.5-173.2-161.7-186.3c-6.1-0.8-11.3-4.6-14.1-10.1c-35.4-70.5-112.3-110-194.2-91.1c-9,2.1-18.2-2.7-21.5-11.4C534.7,244.4,470.5,200.6,397.8,200.6z"/></g></g></g><g></g><g></g><g></g><g></g><g></g><g></g><g></g><g></g><g></g><g></g><g></g><g></g><g></g><g></g><g></g></g>
</svg>